PathFileType	4	(X/Y/Z)	C:\Users\u0088756\Documents\PostDoc\Conferences\Amsterdam_2018\Resources\Resources\MoCap\subject01_walk1_m.trc
DataRate	CameraRate	NumFrames	NumMarkers	Units	OrigDataRate	OrigDataStartFrame	OrigNumFrames
60.000000	60.000000	8	41	m	60.000000	38	151
Frame#	Times		R.ASIS		L.ASIS		V.Sacral		R.Thigh.Upper		R.Thigh.Front		R.Thigh.Rear		L.Thigh.Upper		L.Thigh.Front		L.Thigh.Rear		R.Shank.Upper		R.Shank.Front		R.Shank.Rear		L.Shank.Upper		L.Shank.Front		L.Shank.Rear		R.Heel		R.Midfoot.Sup		R.Midfoot.Lat		R.Toe.Tip		L.Heel		L.Midfoot.Sup		L.Midfoot.Lat		L.Toe.Tip		Sternum		R.Acromium		L.Acromium		R.Bicep		L.Bicep		R.Elbow		L.Elbow		R.Wrist.Med		R.Wrist.Lat		L.Wrist.Med		L.Wrist.Lat		R.Toe.Lat		R.Toe.Med		L.Toe.Lat		L.Toe.Med		R.Temple		L.Temple		Top.Head
			X1	Y1	Z1	X2	Y2	Z2	X3	Y3	Z3	X4	Y4	Z4	X5	Y5	Z5	X6	Y6	Z6	X7	Y7	Z7	X8	Y8	Z8	X9	Y9	Z9	X10	Y10	Z10	X11	Y11	Z11	X12	Y12	Z12	X13	Y13	Z13	X14	Y14	Z14	X15	Y15	Z15	X16	Y16	Z16	X17	Y17	Z17	X18	Y18	Z18	X19	Y19	Z19	X20	Y20	Z20	X21	Y21	Z21	X22	Y22	Z22	X23	Y23	Z23	X24	Y24	Z24	X25	Y25	Z25	X26	Y26	Z26	X27	Y27	Z27	X28	Y28	Z28	X29	Y29	Z29	X30	Y30	Z30	X31	Y31	Z31	X32	Y32	Z32	X33	Y33	Z33	X34	Y34	Z34	X35	Y35	Z35	X36	Y36	Z36	X37	Y37	Z37	X38	Y38	Z38	X39	Y39	Z39	X40	Y40	Z40	X41	Y41	Z41

38	0.617	607.29	1048.5	117.57	607.65	1035.7	-143.67	409.22	1046.4	-2.5595	650	740.65	173.16	718.6	696.73	74.462	684.11	623.98	168.88	470.9	757.21	-189.89	553.81	694.43	-132.96	438.34	652.1	-168.26	688.41	445.64	160.41	776.15	443.38	114.82	734.38	372.67	172.79	349.61	449.16	-159.98	385.7	387.12	-112.12	316.01	415.79	-165.2	800.96	56.434	97.064	927.87	127.53	75.964	922.72	104.81	180.91	1064.8	165.18	126.88	151.3	105.16	-63.081	319.4	71.203	-61.016	301.7	67.705	-134.38	420.38	44.118	-63.825	640.51	1347.8	-15.752	536.56	1440.5	189.87	587.45	1463.8	-224	513.68	1243.9	236.2	629.24	1230.6	-252.13	453.32	1148.5	261.17	598.33	1126.3	-292.95	582.97	912.17	271.22	536.39	898.89	314.98	780.99	967.17	-216.51	750.32	932.56	-276.25	1011.8	121.65	201.72	1020.4	140.36	92.327	353.7	36.874	-141.25	375.59	46.396	-40.432	714.59	1566.8	71.855	731.3	1570.9	-66.534	730.01	1744.3	12.573
39	0.633	608.89	1046	119.02	608.38	1034.4	-141.42	410.99	1043.6	3.1274	656.64	740.66	173.31	726.52	698.99	74.936	691.85	623.61	168.21	469.57	755.99	-188.31	552.79	693.16	-132.68	436.99	651.44	-168.17	693.86	445.2	161.04	781.45	439.69	112.89	738.31	370.63	171.51	346.06	449.97	-160.78	378.06	386.68	-111.11	310.58	417.26	-165.44	791.39	56.836	94.955	921.86	120.36	73.645	914.75	98.687	178.7	1059.6	150.71	124.18	135.34	110.77	-64.366	302.45	69.027	-69.301	284.46	68.271	-135.27	401.69	43.972	-63.962	641.16	1344.9	-12.29	537.27	1437.1	194.53	587.52	1461.8	-219.58	514.85	1240.3	239.65	627.74	1229.6	-249.14	455.7	1144.4	264.84	596.5	1126.2	-291.76	587.4	908.97	273.03	540.45	894.83	318.15	777.12	961.84	-217.17	746.16	928.2	-276.39	1002.6	108.89	199.09	1013.6	127.02	90.37	335.13	36.907	-141.61	357.97	45.695	-40.829	715.54	1565.4	76.795	731.53	1569	-61.094	730.11	1742	17.457
40	0.65	611.29	1044.3	122.25	609.25	1032.7	-139.17	413.36	1041.4	8.795	661.52	739.44	174.75	734.1	700.48	76.657	699.09	623.85	168.65	469.57	755.07	-186.41	551.99	691.19	-131.55	436.62	651.15	-167.7	699.48	445.08	160.24	788.17	437.12	109.06	739.42	368.76	170.34	342.95	450.66	-161.26	372.43	385.17	-112.7	306.79	419.05	-165.67	778.42	57.97	93.169	912.45	111.88	71.505	903.55	91.65	176.6	1051.8	133.29	121.67	120.55	117.86	-65.944	286.46	70.878	-69.259	267.62	68.892	-136.15	382.99	43.89	-63.964	641.69	1343.2	-8.1859	538.2	1434.3	198.85	588.71	1461.8	-215.81	516.92	1237.5	243.61	625.8	1228.5	-245.29	458.52	1140.7	268.74	595.04	1125.3	-288.64	591.68	905.98	276.18	545.18	892.02	320.63	771.65	956.65	-217.04	740.08	924.78	-277.32	990.24	94.412	197.7	1003.8	111.33	88.668	316.56	36.929	-141.84	340.58	44.871	-40.96	715.6	1563.4	81.732	731.1	1567.7	-56.227	729.84	1740.6	23.028
41	0.667	613.99	1043.1	124.56	610.96	1032.1	-137.03	416.04	1040	13.655	666.79	740.61	175.53	740.62	703.11	78.999	704.25	624.92	168.97	471.12	754.45	-184.34	553.46	690.35	-131.43	437.84	650.66	-166.23	702.76	446.12	159.41	790.46	435.52	108.2	741.23	368.29	168.02	341.51	451.81	-161.47	369.14	385.05	-112.07	305	421.11	-165.95	763.74	59.698	92.034	900.61	103.46	69.782	890.52	84.81	174.85	1041.7	115.84	119.52	107.2	126.78	-67.797	271.41	76.391	-61.593	251.31	69.683	-136.91	364.15	43.776	-63.844	643.35	1342.9	-3.5067	539.52	1431.9	204.36	589.04	1461	-209.82	519.87	1234.5	247.85	626.84	1228.5	-242.11	461.73	1137.7	272.73	594.23	1125.4	-285.53	596.12	904.32	279.79	549.89	889.71	323.28	766.26	950.88	-217.7	732.4	920.95	-278.49	979.74	80.118	196.92	991.9	96.175	87.175	298.12	36.932	-141.82	323.37	43.989	-40.773	716.34	1562.3	86.219	731.57	1567.3	-51.166	729.94	1740.4	28.599
42	0.683	615.38	1043.4	127.1	612.23	1032.2	-134.05	418.85	1039.5	17.568	669.15	741.01	178.02	745.8	706.18	82.177	707.74	626.23	169.14	474.44	753.98	-182.29	556.86	689.55	-130.6	440.04	649.9	-164.49	708.38	448.78	159.37	795.23	434.31	106.84	743.24	369.76	169.06	342.89	452.46	-161.28	368.35	384.85	-112.35	305.73	423.31	-166.46	748.14	61.729	91.634	887.05	96.129	68.654	876.34	78.849	173.66	1029.7	100.27	117.95	95.727	137.89	-69.79	257.23	83.022	-52.148	235.74	71.037	-137.5	345.26	43.535	-63.601	644.36	1343	1.1717	539.99	1430	209.87	588.44	1461.8	-203.46	521.79	1232.7	252.46	626.37	1229	-237.63	465.32	1135.4	276.71	591	1127.4	-281.81	601.09	902.26	282.8	554.19	887.08	326.52	759	945.32	-217.95	724.47	917.9	-278.59	964.24	69.705	195.14	978.26	83.324	85.895	279.92	36.998	-141.47	306.39	43.239	-40.322	717.84	1562.6	92.349	732.4	1567.7	-45.853	731.32	1740.6	34.033
43	0.7	619.87	1045.5	129.54	615	1033	-131.57	421.71	1039.8	20.796	674.94	744.25	181.49	752.15	709.27	84.867	712.9	628.25	169.98	479.65	753.39	-180.34	562.87	689.71	-129.59	446.35	648.82	-164.36	711.38	452.72	161.33	798.68	435.15	106.09	743.89	371.72	170.52	348.18	453.33	-161.31	369.72	384.19	-113.24	309.53	425.54	-167.34	731.82	63.767	91.941	872.28	90.396	68.183	861.24	74.018	173.23	1015.8	87.311	117.14	86.813	151.53	-71.694	244.05	89.042	-45.601	221.34	73.595	-137.96	326.76	43.131	-63.234	646.49	1344.1	5.4335	542.94	1430.3	214.93	590.5	1463.5	-198.65	525.43	1232.2	256.64	626.15	1230.2	-234.06	469.28	1133.9	280.73	589.63	1130.1	-279.39	606.27	901.49	285.45	560.53	886.43	329.77	750.05	940.55	-218.58	711.31	915.46	-277.83	949.6	62.409	193.52	963.09	73.232	84.957	262.31	37.399	-140.98	289.78	42.971	-39.758	718.93	1564.2	97.518	733.8	1568.8	-40.389	732.77	1741.5	39.918
44	0.717	623.57	1048	132.26	617.23	1034	-129.21	424.53	1040.7	23.689	680.04	747.08	183.49	757.06	712.35	86.742	719.62	630.88	171.85	486.82	752.4	-178.52	570.4	689.6	-128.35	455.59	647.65	-164.26	710.95	453.85	164.3	792.4	431.93	110.45	741.02	372.49	172.64	355.87	453.97	-163.51	374.44	382.9	-115.01	316.83	427.68	-168.62	714.86	65.602	92.796	856.57	86.299	68.291	845.26	70.275	173.56	1000.4	76.894	117.13	81.326	168.02	-73.214	232.3	94.691	-42.795	208.67	78.091	-138.36	309.26	42.508	-62.84	647.8	1346.1	10.834	544.37	1430.5	221	591.54	1466	-192.8	528.42	1232.4	262.22	622.69	1232.5	-228.81	473.6	1133.2	284.89	587.48	1133.1	-274.61	611.29	901.36	289.1	565.1	885.9	332.91	741.2	937.04	-219.88	703.23	914.2	-279.64	933.06	55.952	192.86	946.75	65.622	84.542	245.8	38.599	-140.71	273.84	43.64	-39.316	721.15	1565.3	102.9	735.1	1570.4	-34.792	733.32	1743.4	45.877
45	0.733	626.46	1050.2	135.33	618.3	1035.1	-125.23	427.21	1041.8	26.511	681.97	747.89	187.33	758.81	712.22	90.87	721.15	632.19	175.1	495.85	750.85	-176.93	582.48	690.39	-127.71	468.33	645.7	-164.97	709.16	455	168.24	791.1	430.75	110.33	737.49	372.19	175.64	369.97	454.21	-165.24	383.76	381.63	-116.52	327.87	429.71	-170.13	697.32	67.076	93.884	840.11	83.567	68.784	828.44	67.495	174.46	983.81	68.718	117.73	80.247	187.43	-74.036	222.61	101.1	-42.52	198.45	85.16	-138.75	293.3	41.529	-62.658	650.29	1348.9	15.781	546.16	1431.9	225.46	590.76	1469.2	-187.42	531.84	1233.1	266.61	623.78	1235.8	-225.51	478.27	1133.1	289.2	584.77	1136.8	-270.72	616.91	901.89	292.93	571.64	886.51	336.34	730.9	933.77	-219.51	692.08	913.79	-280.6	916.57	48.376	193.44	929.6	60.025	84.68	231.05	41.178	-141.02	259.11	45.686	-39.28	721.3	1567.4	107.88	735.26	1573.2	-29.458	734.45	1744.6	51.044
